<svg width="34" height="42" viewBox="0 0 34 42" fill="none" xmlns="http://www.w3.org/2000/svg">
<path d="M28.9997 1H4.99996C2.79084 1 1 2.79084 1 4.99996V36.9996C1 39.2088 2.79084 40.9996 4.99996 40.9996H28.9997C31.2088 40.9996 32.9997 39.2088 32.9997 36.9996V4.99996C32.9997 2.79084 31.2088 1 28.9997 1Z" stroke="#DD2A1B" stroke-width="1.5" stroke-linecap="round" stroke-linejoin="round"/>
<path d="M11 40.9999V33H22.9999V40.9999" stroke="#DD2A1B" stroke-width="1.5" stroke-linecap="round" stroke-linejoin="round"/>
<path d="M8.99609 9H9.01609" stroke="#DD2A1B" stroke-width="1.5" stroke-linecap="round" stroke-linejoin="round"/>
<path d="M25 9H25.02" stroke="#DD2A1B" stroke-width="1.5" stroke-linecap="round" stroke-linejoin="round"/>
<path d="M17 9H17.02" stroke="#DD2A1B" stroke-width="1.5" stroke-linecap="round" stroke-linejoin="round"/>
<path d="M17 17.001H17.02" stroke="#DD2A1B" stroke-width="1.5" stroke-linecap="round" stroke-linejoin="round"/>
<path d="M17 25H17.02" stroke="#DD2A1B" stroke-width="1.5" stroke-linecap="round" stroke-linejoin="round"/>
<path d="M25 17.001H25.02" stroke="#DD2A1B" stroke-width="1.5" stroke-linecap="round" stroke-linejoin="round"/>
<path d="M24.9998 24.9998H25.0198" stroke="#DD2A1B" stroke-width="1.5" stroke-linecap="round" stroke-linejoin="round"/>
<path d="M8.99609 17.001H9.01609" stroke="#DD2A1B" stroke-width="1.5" stroke-linecap="round" stroke-linejoin="round"/>
<path d="M8.99609 25H9.01609" stroke="#DD2A1B" stroke-width="1.5" stroke-linecap="round" stroke-linejoin="round"/>
</svg>
