<svg width="69" height="42" viewBox="0 0 69 42" fill="none" xmlns="http://www.w3.org/2000/svg">
<path d="M61 1H7.66667C3.98477 1 1 3.98477 1 7.66667V34.3333C1 38.0152 3.98477 41 7.66667 41H61C64.6819 41 67.6667 38.0152 67.6667 34.3333V7.66667C67.6667 3.98477 64.6819 1 61 1Z" stroke="#DD2A1B" stroke-width="1.5" stroke-linecap="round" stroke-linejoin="round"/>
<path d="M34.3346 27.6663C38.0165 27.6663 41.0013 24.6816 41.0013 20.9997C41.0013 17.3178 38.0165 14.333 34.3346 14.333C30.6527 14.333 27.668 17.3178 27.668 20.9997C27.668 24.6816 30.6527 27.6663 34.3346 27.6663Z" stroke="#DD2A1B" stroke-width="1.5" stroke-linecap="round" stroke-linejoin="round"/>
<path d="M14.332 21H14.3654M54.332 21H54.3654" stroke="#DD2A1B" stroke-width="1.5" stroke-linecap="round" stroke-linejoin="round"/>
</svg>
