<svg width="42" height="44" viewBox="0 0 42 44" fill="none" xmlns="http://www.w3.org/2000/svg">
<path d="M40.9195 31.9893V38.2204C40.9218 38.7989 40.8073 39.3714 40.5833 39.9014C40.3594 40.4314 40.0309 40.9072 39.619 41.2983C39.2071 41.6893 38.7208 41.987 38.1912 42.1724C37.6617 42.3577 37.1006 42.4265 36.5438 42.3744C30.3673 41.68 24.4343 39.496 19.2216 35.998C14.3719 32.8091 10.2601 28.5543 7.17841 23.5359C3.78619 18.1174 1.67514 11.9482 1.01629 5.52811C0.966133 4.95374 1.0321 4.37486 1.20999 3.82832C1.38788 3.28178 1.67379 2.77956 2.04953 2.35363C2.42527 1.9277 2.8826 1.58739 3.3924 1.35438C3.9022 1.12136 4.45331 1.00074 5.01063 1.0002H11.0322C12.0064 0.990281 12.9507 1.34723 13.6893 2.00451C14.4279 2.66179 14.9103 3.57456 15.0466 4.57268C15.3008 6.56675 15.7722 8.52468 16.4517 10.4091C16.7217 11.1525 16.7802 11.9605 16.6201 12.7372C16.46 13.5139 16.0881 14.2269 15.5485 14.7916L12.9993 17.4294C15.8567 22.6293 20.0174 26.9348 25.0425 29.8916L27.5917 27.2537C28.1374 26.6953 28.8264 26.3105 29.577 26.1448C30.3277 25.9792 31.1085 26.0396 31.8269 26.3191C33.648 27.0223 35.5401 27.51 37.4671 27.773C38.4422 27.9153 39.3326 28.4235 39.9692 29.2009C40.6057 29.9783 40.9439 30.9707 40.9195 31.9893Z" stroke="#DD2A1B" stroke-width="1.5" stroke-linecap="round" stroke-linejoin="round"/>
</svg>
