<?xml version="1.0" encoding="utf-8"?>
<!-- Generator: Adobe Illustrator 16.0.0, SVG Export Plug-In . SVG Version: 6.00 Build 0)  -->
<!DOCTYPE svg PUBLIC "-//W3C//DTD SVG 1.1//EN" "http://www.w3.org/Graphics/SVG/1.1/DTD/svg11.dtd">
<svg version="1.1" id="Layer_1" xmlns="http://www.w3.org/2000/svg" xmlns:xlink="http://www.w3.org/1999/xlink" x="0px" y="0px"
	 width="281.916px" height="112.087px" viewBox="0 0 281.916 112.087" enable-background="new 0 0 281.916 112.087"
	 xml:space="preserve">
<g>
	<path fill="#80878C" d="M7.16,108.147V93.342h1.956v14.806H7.16z M16.342,108.147V95.081h-4.89v-1.739h11.735v1.739h-4.89v13.066
		H16.342z M29.924,103.394l1.847-0.163c0.082,0.733,0.299,1.331,0.598,1.82c0.326,0.488,0.815,0.868,1.494,1.168
		c0.679,0.298,1.439,0.434,2.282,0.434c0.733,0,1.386-0.108,1.983-0.325c0.57-0.244,0.978-0.544,1.276-0.924
		c0.272-0.407,0.408-0.815,0.408-1.276c0-0.462-0.136-0.869-0.408-1.196c-0.271-0.353-0.706-0.651-1.331-0.896
		c-0.408-0.136-1.277-0.381-2.635-0.706c-1.358-0.326-2.309-0.626-2.853-0.924c-0.706-0.38-1.223-0.843-1.575-1.386
		c-0.354-0.543-0.516-1.169-0.516-1.847c0-0.761,0.217-1.44,0.625-2.092c0.435-0.652,1.032-1.141,1.875-1.495
		c0.815-0.325,1.711-0.488,2.716-0.488c1.086,0,2.038,0.163,2.88,0.516c0.842,0.354,1.494,0.87,1.929,1.576
		c0.462,0.68,0.706,1.467,0.733,2.336l-1.875,0.136c-0.108-0.924-0.434-1.629-1.032-2.119c-0.57-0.488-1.439-0.705-2.581-0.705
		c-1.168,0-2.037,0.217-2.581,0.651c-0.543,0.435-0.815,0.95-0.815,1.549c0,0.542,0.19,0.978,0.571,1.33
		c0.38,0.326,1.358,0.68,2.961,1.06c1.603,0.354,2.689,0.68,3.287,0.924c0.842,0.407,1.467,0.896,1.902,1.521
		c0.407,0.599,0.598,1.305,0.598,2.093c0,0.787-0.218,1.521-0.679,2.228c-0.435,0.679-1.087,1.223-1.929,1.629
		c-0.842,0.381-1.793,0.571-2.853,0.571c-1.331,0-2.445-0.19-3.368-0.598c-0.896-0.38-1.603-0.979-2.119-1.766
		C30.223,105.268,29.952,104.371,29.924,103.394L29.924,103.394z M43.453,102.769c0-1.983,0.543-3.45,1.657-4.401
		c0.923-0.788,2.037-1.194,3.368-1.194c1.467,0,2.689,0.488,3.613,1.466c0.924,0.951,1.413,2.283,1.413,3.993
		c0,1.359-0.217,2.446-0.625,3.233s-1.032,1.413-1.82,1.847c-0.788,0.436-1.657,0.652-2.581,0.652c-1.494,0-2.716-0.462-3.64-1.44
		C43.914,105.975,43.453,104.588,43.453,102.769L43.453,102.769z M45.3,102.769c0,1.386,0.299,2.418,0.924,3.097
		c0.597,0.679,1.331,1.005,2.254,1.005c0.896,0,1.657-0.326,2.255-1.005c0.598-0.706,0.896-1.738,0.896-3.151
		c0-1.304-0.298-2.309-0.896-2.988c-0.598-0.679-1.358-1.032-2.255-1.032c-0.924,0-1.657,0.326-2.254,1.005
		C45.599,100.378,45.3,101.41,45.3,102.769L45.3,102.769z M55.595,108.147V93.342h1.82v14.806H55.595z M67.222,108.147v-1.604
		c-0.814,1.223-1.956,1.82-3.396,1.82c-0.625,0-1.222-0.108-1.766-0.354c-0.543-0.244-0.951-0.543-1.222-0.923
		c-0.245-0.354-0.435-0.815-0.543-1.332c-0.082-0.38-0.109-0.923-0.109-1.71v-6.629h1.82v5.922c0,0.951,0.027,1.603,0.108,1.929
		c0.109,0.462,0.354,0.843,0.734,1.114c0.353,0.271,0.814,0.406,1.358,0.406c0.543,0,1.06-0.136,1.521-0.406
		c0.489-0.271,0.815-0.652,1.032-1.142c0.191-0.489,0.272-1.168,0.272-2.091v-5.732h1.82v10.73H67.222z M75.67,106.517l0.244,1.604
		c-0.516,0.108-0.978,0.163-1.358,0.163c-0.679,0-1.168-0.108-1.548-0.299c-0.354-0.218-0.598-0.489-0.761-0.842
		c-0.136-0.327-0.217-1.06-0.217-2.146v-6.167h-1.358v-1.412h1.358v-2.663l1.82-1.086v3.749h1.82v1.412h-1.82v6.275
		c0,0.516,0.027,0.842,0.082,1.006c0.082,0.136,0.19,0.271,0.326,0.353c0.135,0.081,0.353,0.136,0.625,0.136
		C75.073,106.599,75.344,106.571,75.67,106.517L75.67,106.517z M77.463,95.406v-2.064h1.82v2.064H77.463z M77.463,108.147v-10.73
		h1.82v10.73H77.463z M81.375,102.769c0-1.983,0.543-3.45,1.657-4.401c0.924-0.788,2.038-1.194,3.369-1.194
		c1.467,0,2.689,0.488,3.613,1.466c0.924,0.951,1.413,2.283,1.413,3.993c0,1.359-0.217,2.446-0.625,3.233
		c-0.408,0.787-1.032,1.413-1.82,1.847c-0.788,0.436-1.657,0.652-2.581,0.652c-1.494,0-2.716-0.462-3.64-1.44
		C81.836,105.975,81.375,104.588,81.375,102.769L81.375,102.769z M83.222,102.769c0,1.386,0.299,2.418,0.924,3.097
		c0.598,0.679,1.331,1.005,2.254,1.005c0.896,0,1.657-0.326,2.254-1.005c0.598-0.706,0.896-1.738,0.896-3.151
		c0-1.304-0.298-2.309-0.896-2.988c-0.598-0.679-1.358-1.032-2.254-1.032c-0.924,0-1.657,0.326-2.254,1.005
		C83.521,100.378,83.222,101.41,83.222,102.769L83.222,102.769z M93.545,108.147v-10.73h1.629v1.521
		c0.788-1.169,1.929-1.766,3.423-1.766c0.652,0,1.223,0.136,1.765,0.353c0.544,0.244,0.951,0.544,1.223,0.924
		c0.272,0.38,0.462,0.815,0.571,1.331c0.054,0.354,0.108,0.923,0.108,1.766v6.602h-1.82v-6.521c0-0.732-0.082-1.304-0.218-1.656
		c-0.136-0.381-0.407-0.68-0.76-0.896c-0.353-0.218-0.788-0.327-1.25-0.327c-0.787,0-1.439,0.246-2.01,0.734
		c-0.57,0.489-0.842,1.44-0.842,2.798v5.868H93.545z M111.229,108.147v-9.318H109.6v-1.412h1.629v-1.141
		c0-0.734,0.055-1.25,0.19-1.604c0.163-0.461,0.461-0.842,0.923-1.141c0.435-0.299,1.06-0.435,1.848-0.435
		c0.489,0,1.059,0.055,1.684,0.163l-0.271,1.604c-0.38-0.055-0.734-0.11-1.06-0.11c-0.57,0-0.95,0.137-1.168,0.354
		c-0.244,0.244-0.353,0.678-0.353,1.33v0.979h2.091v1.412h-2.064v9.318H111.229z M115.847,102.769c0-1.983,0.543-3.45,1.657-4.401
		c0.924-0.788,2.038-1.194,3.369-1.194c1.467,0,2.689,0.488,3.613,1.466c0.951,0.951,1.413,2.283,1.413,3.993
		c0,1.359-0.218,2.446-0.625,3.233s-1.005,1.413-1.82,1.847c-0.788,0.436-1.63,0.652-2.581,0.652c-1.494,0-2.716-0.462-3.64-1.44
		C116.309,105.975,115.847,104.588,115.847,102.769L115.847,102.769z M117.695,102.769c0,1.386,0.325,2.418,0.923,3.097
		c0.598,0.679,1.358,1.005,2.255,1.005c0.897,0,1.657-0.326,2.255-1.005c0.598-0.706,0.896-1.738,0.896-3.151
		c0-1.304-0.299-2.309-0.896-2.988c-0.598-0.679-1.358-1.032-2.255-1.032c-0.896,0-1.657,0.326-2.255,1.005
		C118.02,100.378,117.695,101.41,117.695,102.769L117.695,102.769z M128.017,108.147v-10.73h1.63v1.63
		c0.408-0.761,0.788-1.25,1.141-1.494c0.354-0.244,0.761-0.38,1.168-0.38c0.625,0,1.25,0.189,1.874,0.597l-0.652,1.657
		c-0.435-0.244-0.869-0.353-1.304-0.353c-0.407,0-0.761,0.108-1.059,0.353c-0.326,0.244-0.543,0.571-0.68,0.979
		c-0.217,0.652-0.298,1.357-0.298,2.118v5.624H128.017z M144.587,106.517l0.271,1.604c-0.515,0.108-0.977,0.163-1.385,0.163
		c-0.651,0-1.168-0.108-1.521-0.299c-0.352-0.218-0.624-0.489-0.76-0.842c-0.163-0.327-0.217-1.06-0.217-2.146v-6.167h-1.358v-1.412
		h1.358v-2.663l1.793-1.086v3.749h1.819v1.412h-1.819v6.275c0,0.516,0.054,0.842,0.108,1.006c0.055,0.136,0.163,0.271,0.298,0.353
		c0.165,0.081,0.354,0.136,0.625,0.136C144.017,106.599,144.262,106.571,144.587,106.517L144.587,106.517z M146.409,108.147V93.342
		h1.819v5.324c0.842-0.978,1.901-1.493,3.178-1.493c0.788,0,1.467,0.162,2.064,0.488c0.571,0.3,1.005,0.733,1.25,1.277
		c0.244,0.57,0.38,1.357,0.38,2.417v6.792h-1.821v-6.792c0-0.896-0.189-1.575-0.597-1.982c-0.38-0.407-0.923-0.626-1.656-0.626
		c-0.517,0-1.033,0.137-1.494,0.436c-0.491,0.271-0.816,0.651-1.005,1.141c-0.217,0.462-0.299,1.114-0.299,1.956v5.868H146.409z
		 M165.207,104.67l1.873,0.244c-0.271,1.087-0.842,1.956-1.63,2.554c-0.786,0.598-1.819,0.896-3.07,0.896
		c-1.548,0-2.796-0.489-3.721-1.44c-0.897-0.978-1.359-2.309-1.359-4.047c0-1.819,0.462-3.206,1.387-4.211
		c0.923-0.978,2.119-1.493,3.612-1.493c1.413,0,2.581,0.488,3.504,1.466c0.896,0.979,1.359,2.364,1.359,4.13
		c0,0.108,0,0.271-0.028,0.462h-7.987c0.083,1.195,0.408,2.092,1.005,2.716c0.599,0.625,1.333,0.924,2.227,0.924
		c0.68,0,1.25-0.163,1.712-0.516C164.555,106.001,164.935,105.431,165.207,104.67L165.207,104.67z M159.256,101.763h5.977
		c-0.081-0.924-0.326-1.575-0.678-2.037c-0.6-0.706-1.333-1.06-2.256-1.06c-0.842,0-1.548,0.272-2.092,0.843
		C159.638,100.079,159.311,100.813,159.256,101.763L159.256,101.763z M175.284,108.147V93.342h5.542
		c1.142,0,2.038,0.136,2.716,0.435c0.68,0.3,1.223,0.761,1.604,1.386c0.406,0.624,0.597,1.276,0.597,1.956
		c0,0.651-0.19,1.223-0.517,1.793c-0.352,0.57-0.868,1.006-1.548,1.358c0.896,0.244,1.576,0.706,2.064,1.331
		s0.706,1.386,0.706,2.254c0,0.68-0.135,1.332-0.435,1.929c-0.3,0.599-0.651,1.06-1.086,1.386c-0.436,0.299-0.979,0.57-1.604,0.733
		c-0.651,0.163-1.466,0.245-2.391,0.245H175.284z M177.24,99.563h3.206c0.868,0,1.494-0.054,1.874-0.163
		c0.49-0.162,0.87-0.406,1.113-0.761c0.245-0.325,0.382-0.76,0.382-1.276s-0.11-0.95-0.354-1.304
		c-0.245-0.381-0.571-0.625-1.006-0.788c-0.434-0.136-1.195-0.189-2.255-0.189h-2.961V99.563z M177.24,106.408h3.694
		c0.625,0,1.06-0.026,1.331-0.081c0.435-0.081,0.816-0.217,1.113-0.408c0.326-0.189,0.571-0.461,0.762-0.814
		c0.189-0.381,0.298-0.787,0.298-1.25c0-0.57-0.135-1.032-0.434-1.439c-0.271-0.407-0.68-0.706-1.168-0.869
		c-0.517-0.163-1.223-0.244-2.174-0.244h-3.423V106.408z M195.928,108.147v-1.604c-0.84,1.223-1.953,1.82-3.395,1.82
		c-0.624,0-1.223-0.108-1.766-0.354c-0.543-0.244-0.95-0.543-1.222-0.923c-0.271-0.354-0.463-0.815-0.571-1.332
		c-0.054-0.38-0.108-0.923-0.108-1.71v-6.629h1.819v5.922c0,0.951,0.055,1.603,0.108,1.929c0.137,0.462,0.382,0.843,0.733,1.114
		c0.382,0.271,0.816,0.406,1.388,0.406c0.542,0,1.031-0.136,1.52-0.406c0.462-0.271,0.816-0.652,1.005-1.142
		c0.191-0.489,0.3-1.168,0.3-2.091v-5.732h1.819v10.73H195.928z M199.678,104.941l1.82-0.299c0.081,0.733,0.38,1.276,0.843,1.657
		c0.46,0.38,1.113,0.57,1.928,0.57c0.843,0,1.468-0.163,1.875-0.488c0.381-0.354,0.598-0.762,0.598-1.223
		c0-0.408-0.191-0.733-0.543-0.951c-0.245-0.162-0.87-0.381-1.875-0.625c-1.305-0.325-2.228-0.624-2.744-0.869
		c-0.515-0.244-0.923-0.57-1.168-1.005c-0.271-0.435-0.406-0.924-0.406-1.439c0-0.489,0.108-0.924,0.325-1.331
		c0.218-0.408,0.515-0.733,0.896-1.005c0.271-0.218,0.651-0.381,1.141-0.544c0.488-0.136,1.005-0.217,1.576-0.217
		c0.842,0,1.575,0.136,2.2,0.38c0.651,0.244,1.114,0.57,1.412,0.978c0.299,0.408,0.517,0.979,0.625,1.685l-1.766,0.244
		c-0.082-0.569-0.325-1.005-0.707-1.304c-0.38-0.326-0.923-0.489-1.629-0.489c-0.842,0-1.44,0.136-1.793,0.408
		c-0.354,0.299-0.517,0.597-0.517,0.978c0,0.244,0.055,0.462,0.218,0.651c0.136,0.191,0.38,0.354,0.679,0.463
		c0.189,0.081,0.734,0.244,1.603,0.461c1.305,0.354,2.173,0.625,2.689,0.843c0.517,0.217,0.923,0.543,1.196,0.95
		c0.298,0.435,0.46,0.951,0.46,1.576c0,0.598-0.188,1.168-0.542,1.684c-0.354,0.544-0.869,0.951-1.522,1.25
		c-0.679,0.299-1.438,0.435-2.281,0.435c-1.385,0-2.444-0.299-3.178-0.869C200.357,106.924,199.895,106.083,199.678,104.941
		L199.678,104.941z M210.762,95.406v-2.064h1.819v2.064H210.762z M210.762,108.147v-10.73h1.819v10.73H210.762z M215.353,108.147
		v-10.73h1.629v1.521c0.788-1.169,1.93-1.766,3.397-1.766c0.65,0,1.248,0.136,1.791,0.353c0.545,0.244,0.95,0.544,1.224,0.924
		c0.271,0.38,0.435,0.815,0.543,1.331c0.08,0.354,0.108,0.923,0.108,1.766v6.602h-1.821v-6.521c0-0.732-0.054-1.304-0.217-1.656
		c-0.135-0.381-0.38-0.68-0.733-0.896c-0.353-0.218-0.786-0.327-1.277-0.327c-0.76,0-1.438,0.246-1.981,0.734
		c-0.571,0.489-0.843,1.44-0.843,2.798v5.868H215.353z M234.151,104.67l1.901,0.244c-0.299,1.087-0.842,1.956-1.658,2.554
		c-0.786,0.598-1.819,0.896-3.041,0.896c-1.576,0-2.824-0.489-3.722-1.44c-0.924-0.978-1.387-2.309-1.387-4.047
		c0-1.819,0.463-3.206,1.387-4.211c0.923-0.978,2.119-1.493,3.613-1.493c1.413,0,2.581,0.488,3.504,1.466
		c0.896,0.979,1.358,2.364,1.358,4.13c0,0.108,0,0.271,0,0.462h-8.015c0.082,1.195,0.408,2.092,1.005,2.716
		c0.6,0.625,1.359,0.924,2.256,0.924c0.651,0,1.222-0.163,1.685-0.516C233.526,106.001,233.879,105.431,234.151,104.67
		L234.151,104.67z M228.201,101.763h5.977c-0.08-0.924-0.298-1.575-0.678-2.037c-0.57-0.706-1.333-1.06-2.255-1.06
		c-0.816,0-1.522,0.272-2.093,0.843C228.583,100.079,228.284,100.813,228.201,101.763L228.201,101.763z M237.628,104.941
		l1.792-0.299c0.082,0.733,0.381,1.276,0.842,1.657c0.462,0.38,1.113,0.57,1.93,0.57c0.842,0,1.468-0.163,1.874-0.488
		c0.407-0.354,0.599-0.762,0.599-1.223c0-0.408-0.191-0.733-0.545-0.951c-0.243-0.162-0.868-0.381-1.848-0.625
		c-1.33-0.325-2.253-0.624-2.77-0.869c-0.517-0.244-0.896-0.57-1.168-1.005s-0.408-0.924-0.408-1.439
		c0-0.489,0.108-0.924,0.326-1.331c0.217-0.408,0.516-0.733,0.896-1.005c0.271-0.218,0.652-0.381,1.142-0.544
		c0.488-0.136,1.031-0.217,1.575-0.217c0.843,0,1.574,0.136,2.228,0.38c0.626,0.244,1.086,0.57,1.386,0.978
		c0.299,0.408,0.517,0.979,0.625,1.685l-1.768,0.244c-0.08-0.569-0.325-1.005-0.705-1.304c-0.38-0.326-0.923-0.489-1.631-0.489
		c-0.842,0-1.438,0.136-1.793,0.408c-0.352,0.299-0.515,0.597-0.515,0.978c0,0.244,0.055,0.462,0.218,0.651
		c0.135,0.191,0.38,0.354,0.679,0.463c0.189,0.081,0.732,0.244,1.603,0.461c1.303,0.354,2.199,0.625,2.689,0.843
		c0.515,0.217,0.923,0.543,1.223,0.95c0.271,0.435,0.434,0.951,0.434,1.576c0,0.598-0.19,1.168-0.542,1.684
		c-0.354,0.544-0.871,0.951-1.522,1.25c-0.679,0.299-1.439,0.435-2.281,0.435c-1.385,0-2.444-0.299-3.178-0.869
		C238.28,106.924,237.818,106.083,237.628,104.941L237.628,104.941z M247.952,104.941l1.793-0.299
		c0.108,0.733,0.38,1.276,0.84,1.657c0.463,0.38,1.114,0.57,1.956,0.57c0.816,0,1.441-0.163,1.848-0.488
		c0.408-0.354,0.625-0.762,0.625-1.223c0-0.408-0.189-0.733-0.543-0.951c-0.271-0.162-0.896-0.381-1.875-0.625
		c-1.331-0.325-2.254-0.624-2.771-0.869c-0.517-0.244-0.896-0.57-1.168-1.005c-0.245-0.435-0.38-0.924-0.38-1.439
		c0-0.489,0.108-0.924,0.325-1.331c0.218-0.408,0.518-0.733,0.869-1.005c0.299-0.218,0.68-0.381,1.168-0.544
		c0.49-0.136,1.005-0.217,1.576-0.217c0.842,0,1.575,0.136,2.201,0.38c0.625,0.244,1.113,0.57,1.413,0.978
		c0.297,0.408,0.515,0.979,0.623,1.685l-1.793,0.244c-0.055-0.569-0.298-1.005-0.678-1.304c-0.408-0.326-0.925-0.489-1.658-0.489
		c-0.814,0-1.411,0.136-1.766,0.408c-0.354,0.299-0.542,0.597-0.542,0.978c0,0.244,0.08,0.462,0.217,0.651
		c0.163,0.191,0.38,0.354,0.705,0.463c0.191,0.081,0.706,0.244,1.603,0.461c1.278,0.354,2.173,0.625,2.689,0.843
		c0.517,0.217,0.896,0.543,1.196,0.95c0.298,0.435,0.435,0.951,0.435,1.576c0,0.598-0.163,1.168-0.517,1.684
		c-0.353,0.544-0.869,0.951-1.548,1.25c-0.651,0.299-1.413,0.435-2.256,0.435c-1.385,0-2.444-0.299-3.178-0.869
		C248.628,106.924,248.168,106.083,247.952,104.941L247.952,104.941z M266.34,104.67l1.876,0.244c-0.3,1.087-0.843,1.956-1.63,2.554
		c-0.816,0.598-1.821,0.896-3.07,0.896c-1.576,0-2.798-0.489-3.723-1.44c-0.923-0.978-1.385-2.309-1.385-4.047
		c0-1.819,0.462-3.206,1.385-4.211c0.951-0.978,2.146-1.493,3.614-1.493c1.439,0,2.607,0.488,3.504,1.466
		c0.896,0.979,1.359,2.364,1.359,4.13c0,0.108,0,0.271,0,0.462h-7.987c0.055,1.195,0.38,2.092,0.978,2.716
		c0.625,0.625,1.358,0.924,2.255,0.924c0.651,0,1.223-0.163,1.685-0.516C265.69,106.001,266.07,105.431,266.34,104.67L266.34,104.67
		z M260.392,101.763h5.948c-0.054-0.924-0.297-1.575-0.679-2.037c-0.569-0.706-1.331-1.06-2.228-1.06
		c-0.842,0-1.548,0.272-2.119,0.843C260.745,100.079,260.447,100.813,260.392,101.763L260.392,101.763z M269.791,104.941
		l1.793-0.299c0.108,0.733,0.38,1.276,0.843,1.657c0.462,0.38,1.113,0.57,1.955,0.57c0.816,0,1.439-0.163,1.848-0.488
		c0.408-0.354,0.598-0.762,0.598-1.223c0-0.408-0.163-0.733-0.543-0.951c-0.245-0.162-0.869-0.381-1.848-0.625
		c-1.331-0.325-2.254-0.624-2.771-0.869c-0.517-0.244-0.896-0.57-1.168-1.005s-0.407-0.924-0.407-1.439
		c0-0.489,0.108-0.924,0.325-1.331c0.217-0.408,0.517-0.733,0.896-1.005c0.3-0.218,0.68-0.381,1.168-0.544
		c0.488-0.136,1.005-0.217,1.548-0.217c0.843,0,1.604,0.136,2.229,0.38c0.623,0.244,1.113,0.57,1.411,0.978
		c0.3,0.408,0.517,0.979,0.625,1.685l-1.793,0.244c-0.08-0.569-0.298-1.005-0.706-1.304c-0.38-0.326-0.924-0.489-1.63-0.489
		c-0.814,0-1.413,0.136-1.765,0.408c-0.354,0.299-0.545,0.597-0.545,0.978c0,0.244,0.082,0.462,0.219,0.651
		c0.163,0.191,0.38,0.354,0.706,0.463c0.162,0.081,0.705,0.244,1.602,0.461c1.277,0.354,2.174,0.625,2.69,0.843
		c0.488,0.217,0.896,0.543,1.195,0.95c0.298,0.435,0.435,0.951,0.435,1.576c0,0.598-0.191,1.168-0.543,1.684
		c-0.354,0.544-0.842,0.951-1.521,1.25c-0.653,0.299-1.413,0.435-2.256,0.435c-1.385,0-2.473-0.299-3.204-0.869
		C270.47,106.924,270.009,106.083,269.791,104.941L269.791,104.941z"/>
	<path fill-rule="evenodd" clip-rule="evenodd" fill="#DD2A1B" stroke="#DD2A1B" stroke-width="0.2268" stroke-miterlimit="10" d="
		M30.06,26.598c-7.253-3.396-20.102,1.141-20.998,9.97c-0.136,6.058,3.151,15.403,3.45,19.721c0.679,3.722-0.217,7.254,0.027,10.948
		c-0.054,6.14,0.571,10.405,5.107,13.827C8.926,75.93,5.503,70.035,6.617,63.624c1.086-4.89,0.978-7.335-0.299-11.165
		c-4.129-13.963-3.205-23.796,2.391-27.6C16.478,19.997,24.654,20.404,30.06,26.598L30.06,26.598z"/>
	<path fill-rule="evenodd" clip-rule="evenodd" fill="#DD2A1B" stroke="#DD2A1B" stroke-width="0.2268" stroke-miterlimit="10" d="
		M43.643,27.413c8.801-2.363,13.908-0.896,14.777,8.829c-0.027,3.287-0.896,6.927-2.771,11.436
		c-1.711,3.288-2.526,7.171-3.097,13.909c-0.435,13.99-2.635,20.781-9.562,20.346c7.443,2.418,12.496-2.988,14.125-12.441
		c0.408-2.663,1.033-13.637,3.858-20.021c5.977-13.501,5.107-21.08,0.814-24.204C58.094,21.925,48.478,22.007,43.643,27.413
		L43.643,27.413z"/>
	<path fill-rule="evenodd" clip-rule="evenodd" fill="#5BBF08" d="M35.466,21.627c2.499-6.438,4.075-10.079,9.562-15.294
		c1.06,0.489,2.445,0.435,4.184-0.19l1.657,0.707c-4.102,4.292-9.481,8.041-11.11,14.832c1.793,0.244,3.151-0.354,4.102-1.848
		c0.136,1.223-0.217,2.174-1.195,2.826c1.847-0.245,3.884-1.087,6.139-2.635c-0.761,2.282-2.988,3.477-6.112,3.994
		c0.462,0.651,1.576,0.679,2.988,0.434c-2.146,2.717-5.542,2.717-9.589,1.331c-5.215,1.738-7.715-1.195-8.638-6.709
		c1.331,1.657,2.689,3.151,4.237,3.368c-1.114-1.548-0.951-2.961-0.407-4.346C31.826,20.16,32.831,21.735,35.466,21.627
		L35.466,21.627z"/>
	<path fill="#DD2A1B" d="M82.814,56.017v5.597c-1.684-1.195-3.721-1.793-6.166-1.793c-2.092,0-3.695,0.38-4.863,1.141
		c-1.141,0.761-1.711,1.847-1.711,3.259c0,2.744,2.173,4.102,6.493,4.102h8.774V56.451c0-4.997-2.607-7.524-7.823-7.524H66.869
		v-5.216h10.975c4.292,0,7.579,1.005,9.888,2.988s3.45,4.835,3.45,8.584v18.283H76.376c-3.776,0-6.764-0.788-8.964-2.364
		c-2.228-1.575-3.314-3.884-3.314-6.9c0-3.042,1.168-5.324,3.504-6.899c2.364-1.576,5.297-2.363,8.856-2.363
		C78.441,55.04,80.56,55.366,82.814,56.017L82.814,56.017z M95.283,87.72V58.625c0-2.146,0.408-4.184,1.25-6.085
		c0.842-1.902,2.01-3.559,3.45-4.944c1.467-1.385,3.206-2.472,5.188-3.287c2.01-0.815,4.129-1.223,6.384-1.223
		s4.374,0.408,6.356,1.223c1.956,0.814,3.694,1.928,5.161,3.314c1.494,1.412,2.663,3.069,3.504,4.944
		c0.842,1.902,1.25,3.912,1.25,6.058c0,2.173-0.408,4.183-1.223,6.058c-0.815,1.902-1.956,3.558-3.422,4.944
		c-1.467,1.413-3.179,2.526-5.189,3.341c-1.983,0.814-4.129,1.194-6.438,1.194c-2.825,0-5.46-0.597-7.905-1.847v-5.596
		c2.173,1.494,4.727,2.227,7.715,2.227c1.576,0,3.042-0.244,4.347-0.761c1.304-0.516,2.418-1.25,3.314-2.146
		c0.896-0.923,1.603-2.01,2.092-3.259c0.489-1.277,0.733-2.663,0.733-4.156c0-1.495-0.245-2.853-0.733-4.129
		c-0.489-1.25-1.168-2.337-2.064-3.26c-0.869-0.896-1.956-1.63-3.206-2.147c-1.276-0.516-2.689-0.76-4.292-0.76
		c-1.548,0-2.961,0.244-4.211,0.734c-1.276,0.488-2.363,1.194-3.259,2.119c-0.924,0.896-1.603,1.982-2.092,3.259
		c-0.489,1.25-0.734,2.663-0.734,4.184V87.72H95.283z M153.716,43.711v5.216h-11.764c-1.303,0-2.39,0.245-3.341,0.707
		c-0.923,0.435-1.385,1.086-1.385,1.901c0,0.516,0.108,0.951,0.326,1.358c0.244,0.38,0.489,0.707,0.76,0.951
		c0.299,0.245,0.734,0.517,1.331,0.788c0.598,0.271,1.06,0.462,1.413,0.542c0.326,0.109,1.738,0.544,4.21,1.276
		c2.472,0.762,4.32,1.386,5.514,1.876c1.196,0.488,2.119,1.167,2.772,2.01c0.624,0.869,1.032,1.684,1.223,2.499
		c0.163,0.815,0.271,1.603,0.271,2.39c0,5.542-4.075,8.34-12.252,8.34h-11.49v-5.244h11.49c4.183,0,6.248-1.032,6.248-3.097
		c0-1.005-0.597-1.819-1.819-2.499c-1.222-0.652-2.689-1.223-4.455-1.658c-1.739-0.461-3.505-1.005-5.243-1.602
		c-1.739-0.598-3.233-1.576-4.455-2.907c-1.222-1.358-1.82-3.016-1.82-5.026c0-2.526,1.033-4.455,3.125-5.813
		c2.091-1.331,4.618-2.01,7.578-2.01H153.716z M167.08,73.566h-5.839V48.927h-5.434l2.664-5.216h8.609V73.566z M160.969,37.491
		c-0.571-0.706-0.842-1.467-0.842-2.281c0-0.842,0.271-1.604,0.842-2.282c0.597-0.679,1.465-1.032,2.662-1.032
		s2.093,0.353,2.661,1.032c0.571,0.679,0.871,1.44,0.871,2.282c0,0.814-0.3,1.575-0.871,2.254c-0.568,0.679-1.465,1.032-2.661,1.032
		S161.566,38.17,160.969,37.491L160.969,37.491z M169.444,48.927l11.898-11.11v5.895h8.964v5.216h-8.964V61.75
		c0,1.439,0.243,2.635,0.76,3.612c0.517,0.951,1.25,1.603,2.228,2.01c0.979,0.381,1.901,0.652,2.772,0.761
		c0.842,0.136,1.928,0.19,3.204,0.19v5.244c-5.08,0-8.855-0.924-11.3-2.744c-2.418-1.82-3.641-4.862-3.641-9.073V48.927H169.444z
		 M209.023,43.087c7.524,0.299,11.273,3.232,11.273,8.774c0,6.927-4.835,10.377-14.534,10.377h-2.716v-4.78h3.179
		c2.961,0,5.025-0.435,6.167-1.277c1.168-0.842,1.737-2.254,1.737-4.265c0-1.277-0.515-2.255-1.52-2.88
		c-1.033-0.651-2.336-0.977-3.94-0.977c-3.124,0-5.595,1.031-7.388,3.124c-1.793,2.064-2.689,4.563-2.689,7.443
		c0,3.069,0.951,5.568,2.879,7.47c1.93,1.901,4.454,2.852,7.552,2.852c2.771,0,5.052-0.625,6.845-1.929l3.967,3.667
		c-3.042,2.336-6.656,3.477-10.812,3.477c-5.054,0-9.1-1.385-12.089-4.156c-3.014-2.771-4.535-6.356-4.535-10.758
		c0-4.889,1.493-8.828,4.454-11.87C199.814,44.364,203.861,42.924,209.023,43.087L209.023,43.087z M245.533,67.019l3.967,3.667
		c-3.044,2.336-6.548,3.477-10.485,3.477c-4.917,0-8.857-1.466-11.818-4.427c-2.987-2.961-4.455-6.656-4.455-11.11
		c0-4.347,1.548-8.014,4.674-11.029c3.124-2.988,6.979-4.509,11.6-4.509c3.938,0,7.441,1.168,10.485,3.477l-3.912,3.748
		c-1.848-1.331-4.049-1.982-6.573-1.982c-3.07,0-5.488,0.923-7.281,2.824c-1.793,1.875-2.689,4.375-2.689,7.471
		c0,3.124,0.896,5.623,2.689,7.497c1.793,1.902,4.211,2.825,7.281,2.825C241.595,68.948,243.74,68.323,245.533,67.019
		L245.533,67.019z M257.784,30.047v13.664h5.65c4.917,0,8.421,0.68,10.567,2.064c1.902,1.196,3.098,2.636,3.612,4.319
		c0.517,1.685,0.762,3.885,0.762,6.602v16.87h-5.841V56.778c0-0.761-0.026-1.386-0.081-1.901c-0.027-0.516-0.19-1.195-0.462-1.983
		c-0.271-0.814-0.625-1.494-1.114-2.01c-0.488-0.516-1.195-0.951-2.146-1.357c-0.923-0.381-2.036-0.598-3.367-0.598h-7.58v24.639
		h-5.84V30.047H257.784z"/>
	<path fill="#DD2A1B" d="M44.974,65.253l4.863,4.483c-3.722,2.826-7.987,4.238-12.822,4.238c-6.003,0-10.812-1.793-14.425-5.433
		c-3.613-3.613-5.433-8.123-5.433-13.529c0-5.324,1.901-9.807,5.705-13.474c3.83-3.667,8.53-5.515,14.153-5.515
		c4.835,0,9.1,1.44,12.822,4.265l-4.781,4.536c-2.282-1.603-4.944-2.417-8.041-2.417c-3.722,0-6.683,1.141-8.883,3.45
		c-2.173,2.31-3.259,5.352-3.259,9.155c0,3.776,1.086,6.846,3.259,9.127c2.2,2.31,5.161,3.478,8.883,3.478
		C40.166,67.617,42.801,66.829,44.974,65.253L44.974,65.253z"/>
</g>
</svg>
