<svg width="47" height="44" viewBox="0 0 47 44" fill="none" xmlns="http://www.w3.org/2000/svg">
<path d="M1 1H14.3333C16.6908 1 18.9517 1.96908 20.6187 3.69405C22.2857 5.41902 23.2222 7.75859 23.2222 10.1981V42.3913C23.2222 40.5617 22.5198 38.807 21.2696 37.5133C20.0194 36.2196 18.3237 35.4928 16.5556 35.4928H1V1Z" stroke="#DD2A1B" stroke-width="1.5" stroke-linecap="round" stroke-linejoin="round"/>
<path d="M45.4449 1H32.1115C29.7541 1 27.4931 1.96908 25.8262 3.69405C24.1592 5.41902 23.2227 7.75859 23.2227 10.1981V42.3913C23.2227 40.5617 23.925 38.807 25.1753 37.5133C26.4255 36.2196 28.1212 35.4928 29.8893 35.4928H45.4449V1Z" stroke="#DD2A1B" stroke-width="1.5" stroke-linecap="round" stroke-linejoin="round"/>
</svg>
